<svg t="1576133265720" class="icon" viewBox="0 0 1024 1024" version="1.1" xmlns="http://www.w3.org/2000/svg" p-id="10211" width="64" height="64"><path d="M804.2 96H219.8C152.7 96 96 152.7 96 219.8v584.4C96 871.3 152.7 928 219.8 928h584.4c67.1 0 123.8-56.7 123.8-123.8V219.8C928 152.7 871.3 96 804.2 96z m11.4 339.9L659.5 592 601 650.5c-3.6 3.6-9.5 3.6-13.1 0L529.4 592l-97-97-158.3 158.3c-3.6 3.6-9.5 3.6-13.1 0l-52.6-52.6c-3.6-3.6-3.6-9.5 0-13.1l216.8-216.8c3.6-3.6 9.5-3.6 13.1 0l156.2 156.1 156.1-156c3.6-3.6 9.5-3.6 13.1 0l51.9 51.9c3.7 3.5 3.7 9.4 0 13.1z" p-id="10212" fill="#ffffff"></path></svg>