<svg t="1576220163338" class="icon" viewBox="0 0 1024 1024" version="1.1" xmlns="http://www.w3.org/2000/svg" p-id="5769" width="64" height="64"><path d="M512 740.864c-135.168 0-245.248-110.08-245.248-245.248V189.952c0-11.776 9.728-22.016 22.016-22.016h446.976c11.776 0 22.016 9.728 22.016 22.016v305.152c-0.512 135.68-110.592 245.76-245.76 245.76z" fill="#ea9518" p-id="5770"></path><path d="M315.904 636.416c-83.968 0-152.064-68.096-152.064-152.064V317.44c0-14.336 11.776-26.112 26.112-26.112h96.768c14.336 0 26.112 11.776 26.112 26.112s-11.776 26.112-26.112 26.112h-70.656v141.312c0 55.296 45.056 99.84 99.84 99.84 14.336 0 26.112 11.776 26.112 26.112s-11.776 25.6-26.112 25.6z m392.192 0c-14.336 0-26.112-11.776-26.112-26.112s11.776-26.112 26.112-26.112c55.296 0 99.84-45.056 99.84-99.84v-140.8H737.28c-14.336 0-26.112-11.776-26.112-26.112s11.776-26.112 26.112-26.112h96.768c14.336 0 26.112 11.776 26.112 26.112v167.424c0 83.456-68.096 151.552-152.064 151.552zM657.92 886.272H366.08c-14.336 0-26.112-11.776-26.112-26.112s11.776-26.112 26.112-26.112h292.352c14.336 0 26.112 11.776 26.112 26.112s-11.776 26.112-26.624 26.112z" fill="#ea9518" p-id="5771"></path><path d="M512 865.792c-14.336 0-26.112-11.776-26.112-26.112V718.848c0-14.336 11.776-26.112 26.112-26.112s26.112 11.776 26.112 26.112V839.68c0 14.336-11.776 26.112-26.112 26.112z" fill="#ea9518" p-id="5772"></path></svg>